<svg version="1" xmlns="http://www.w3.org/2000/svg" width="256" height="256" viewBox="0 0 192.000000 192.000000"><path d="M74.5 10.3c-2.8 2.8-3.5 4.2-3.5 7.5 0 10.3 13.8 14.5 19 5.9 4.4-7.2.6-15.3-7.7-16.4-3.9-.5-4.6-.2-7.8 3zm12 2.7c2.6 2.9 2.4 7.9-.4 10.2-6.6 5.3-15.3-2.9-10.1-9.5 2.7-3.4 7.8-3.7 10.5-.7zM104.5 45.5c-15.8 5.6-27.7 16-34.9 30.8C65.3 84.9 62 97 62 103.6v2.8l-2.9-2.8c-3.7-3.5-7-3.2-9.1.9-1.7 3.4-2.1 25.7-.7 35.7l.8 5.8H23l-3.2 2.9c-2.8 2.5-3.3 3.6-3.3 7.4 0 3.3.6 5.2 2.2 6.9l2.3 2.4-2.3 2.2c-1.6 1.7-2.2 3.4-2.2 6.8 0 3.9.5 5 3.3 7.5L23 185h72.8c79.9 0 75.4.3 78.7-6 2.1-4 1.9-6.2-.8-10.1l-2.3-3.4 2.3-3.4c2.7-4 2.9-6.1.8-10.1-2.7-5.3-4.8-6-17.8-6h-11.8l.8-3.8c.4-2 .8-7.8.8-12.7 0-11.7-2.6-17.6-12.5-28-10.9-11.5-14.8-22.2-15.1-41.6-.2-11.3-1.2-14.4-4.9-15.7-2.2-.8-4.3-.5-9.5 1.3zm9.2 2.7c.6.7 1.3 6.7 1.6 13.3 1 19.9 4.9 30.7 15 41.3 8.6 9 10.4 11.9 12.3 19.3 1.7 6.6 1.5 15-.5 20.3-1 2.5-1.4 2.6-8.1 2.6h-7.1l.6-4.5c1.2-7.3-1-13.8-6.6-19.9-6.5-7.1-9-13-9.6-22.8-.9-12.5-4.3-15.1-13.8-10.7-10.6 5-19.7 17-21.1 28.1-.5 3.5-1 4.6-1.7 3.9-.6-.6-1.9-1.1-2.9-1.1-3.2 0-4.3 3.9-4.3 15.7l.1 11.3H54.1l-.8-3.8c-1-4.8-1-34.8 0-35.8.9-.9 1.6-.5 7.5 4.4l4 3.2.6-5.7c1.2-12.5 3.6-21.9 7.5-29.8 6.3-12.8 17.8-23 31.3-28.1 7.4-2.7 8.2-2.8 9.5-1.2zm-7.3 42c.2.7.8 5 1.4 9.6 1.4 10.4 3.7 15.5 10 22.5 5.5 6 6.5 9 6 17.2l-.3 5-25.6.3-25.6.2-.7-3.1c-.8-4.1-.8-17.4 0-18.2.4-.4 1.9.2 3.4 1.3 1.6 1.1 3 2 3.3 2 .2 0 .7-2.9 1.1-6.6.9-8.6 3.8-16.1 8.2-21.3 6-7 17.8-12.6 18.8-8.9zm-74.1 62c3.7 4.4.6 10.8-5.3 10.8-3.5 0-7-3.1-7-6.1 0-6.9 7.7-9.9 12.3-4.7zm137.1-1.1c3.6 2.8 3.6 8 0 10.8-2.6 2.1-3.4 2.1-68.5 2.1-40.5 0-65.9-.4-65.9-.9 0-.6.5-1.3 1-1.6 1.3-.8 1.3-8.1 0-10.6-1.1-1.9 0-1.9 64.8-1.9 65.2 0 66 0 68.6 2.1zm-12.6 17c-.2.7-14.6 1.1-44.3 1.2-38.4.2-44 .4-44 1.7 0 1.3 5.5 1.5 43.1 1.5h43.1l.1 2.7c0 1.5.6 3.6 1.2 4.7l1.1 2.1H24.9l-2.4-2.5c-3.8-3.7-2.9-9.6 1.8-11.5 3.3-1.3 133-1.3 132.5.1zm7.2 1.8c0 1 .9 2.1 2 2.4 1.1.3 2 1.2 2 2.1 0 2.4 1.9 1.9 3-.7.8-2 .9-2 .9.9.2 6.2-8.2 9.3-12.1 4.5-2.3-3-2.3-5.2.3-8.5 2.4-3.1 3.9-3.3 3.9-.7z"/><path d="M21 156.8c0 3.3 5.3 6.6 7.3 4.6.7-.8-4.7-6.4-6.2-6.4-.6 0-1.1.8-1.1 1.8zM41.7 150.7c-.4.3-.7 1.2-.7 2 0 1.1 7.6 1.3 41.3 1.3 22.8 0 41.7-.3 42-.7.4-.3.2-1.2-.4-2-.9-1-8.9-1.3-41.4-1.3-22.1 0-40.5.3-40.8.7zM107.5 159c-1.6 2.7 1.5 3 27.6 3 25.2 0 27-.1 26.7-1.8-.3-1.6-2.5-1.7-27-2-17.3-.1-26.9.1-27.3.8zM25 177.5c0 1.3 5.9 1.5 47 1.5s47-.2 47-1.5-5.9-1.5-47-1.5-47 .2-47 1.5zM41.7 60.8c-3.3 3.7-1.1 9.2 3.7 9.2 2.5 0 5.6-2.8 5.6-5.1 0-2.6-3-5.9-5.4-5.9-1.3 0-3 .8-3.9 1.8zm5.3 3.5c0 .8-.3 1.7-.7 2-.9.9-3.4-1.3-2.7-2.4.8-1.4 3.4-1.1 3.4.4zM132.7 65.9c-5.6 2.8-6.2 10.4-1.1 13.7 8.2 5.4 17.4-4.2 11.4-11.8-2.5-3.3-6.2-3.9-10.3-1.9zm7.9 4.6c1.5 2.3 1.5 2.7 0 5-2.8 4.2-8.6 2.6-8.6-2.5s5.8-6.8 8.6-2.5z"/></svg>